<svg width="27" height="29" viewBox="0 0 27 29" fill="none" xmlns="http://www.w3.org/2000/svg">
<path d="M5.83333 2L2 7.11111V25C2 25.6778 2.26925 26.3278 2.7485 26.8071C3.22776 27.2863 3.87778 27.5556 4.55556 27.5556H22.4444C23.1222 27.5556 23.7722 27.2863 24.2515 26.8071C24.7308 26.3278 25 25.6778 25 25V7.11111L21.1667 2H5.83333Z" stroke="#2F2F2F" stroke-width="2.55556" stroke-linecap="round" stroke-linejoin="round"/>
<path d="M18.6111 12.2222C18.6111 13.5777 18.0726 14.8778 17.1141 15.8363C16.1556 16.7948 14.8555 17.3333 13.5 17.3333C12.1444 17.3333 10.8444 16.7948 9.8859 15.8363C8.92738 14.8778 8.38889 13.5777 8.38889 12.2222" stroke="#2F2F2F" stroke-width="2.55556" stroke-linecap="round" stroke-linejoin="round"/>
<path d="M2 7.11108H25" stroke="#2F2F2F" stroke-width="2.55556" stroke-linecap="round" stroke-linejoin="round"/>
</svg>
