<svg width="83" height="26" viewBox="0 0 83 26" fill="none" xmlns="http://www.w3.org/2000/svg">
<path d="M0.295455 25H4.51136V15.1136H14.1818V11.5795H4.51136V5.26136H15.2045V1.72727H0.295455V25ZM28.8949 17.6591C28.8949 20.3182 26.9972 21.6364 25.179 21.6364C23.2017 21.6364 21.8835 20.2386 21.8835 18.0227V7.54545H17.7699V18.6591C17.7699 22.8523 20.1562 25.2273 23.5881 25.2273C26.2017 25.2273 28.0426 23.8523 28.8381 21.8977H29.0199V25H33.0085V7.54545H28.8949V17.6591ZM37.2386 25H41.3523V14.7386C41.3523 12.5227 43.0227 10.9545 45.2841 10.9545C45.9773 10.9545 46.8409 11.0795 47.1932 11.1932V7.40909C46.8182 7.34091 46.1705 7.29545 45.7159 7.29545C43.7159 7.29545 42.0455 8.43182 41.4091 10.4545H41.2273V7.54545H37.2386V25ZM54.0398 14.7727C54.0398 12.25 55.5625 10.7955 57.733 10.7955C59.858 10.7955 61.1307 12.1932 61.1307 14.5227V25H65.2443V13.8864C65.2557 9.70455 62.8693 7.31818 59.267 7.31818C56.6534 7.31818 54.858 8.56818 54.0625 10.5114H53.858V7.54545H49.9261V25H54.0398V14.7727ZM69.4261 25H73.5398V7.54545H69.4261V25ZM71.4943 5.06818C72.8011 5.06818 73.8693 4.06818 73.8693 2.84091C73.8693 1.60227 72.8011 0.602272 71.4943 0.602272C70.1761 0.602272 69.108 1.60227 69.108 2.84091C69.108 4.06818 70.1761 5.06818 71.4943 5.06818Z" fill="white"/>
<path d="M80.304 25.25C81.6449 25.25 82.7926 24.1364 82.804 22.75C82.7926 21.3864 81.6449 20.2727 80.304 20.2727C78.9176 20.2727 77.7926 21.3864 77.804 22.75C77.7926 24.1364 78.9176 25.25 80.304 25.25Z" fill="white" fill-opacity="0.37"/>
</svg>
