<svg width="37" height="31" viewBox="0 0 37 31" fill="none" xmlns="http://www.w3.org/2000/svg">
<path d="M28.25 29C30.3211 29 32 27.3211 32 25.25C32 23.1789 30.3211 21.5 28.25 21.5C26.1789 21.5 24.5 23.1789 24.5 25.25C24.5 27.3211 26.1789 29 28.25 29Z" stroke="#2F2F2F" stroke-width="3" stroke-linecap="round" stroke-linejoin="round"/>
<path d="M8.75 29C10.8211 29 12.5 27.3211 12.5 25.25C12.5 23.1789 10.8211 21.5 8.75 21.5C6.67893 21.5 5 23.1789 5 25.25C5 27.3211 6.67893 29 8.75 29Z" stroke="#2F2F2F" stroke-width="3" stroke-linecap="round" stroke-linejoin="round"/>
<path d="M24.5 9.5H30.5L35 14V21.5H24.5V9.5Z" stroke="#2F2F2F" stroke-width="3" stroke-linecap="round" stroke-linejoin="round"/>
<path d="M24.5 2H2V21.5H24.5V2Z" stroke="#2F2F2F" stroke-width="3" stroke-linecap="round" stroke-linejoin="round"/>
</svg>
