<svg width="32" height="32" viewBox="0 0 32 32" fill="none" xmlns="http://www.w3.org/2000/svg">
<path d="M16 30.25C23.732 30.25 30 23.982 30 16.25C30 8.51801 23.732 2.25 16 2.25C8.26801 2.25 2 8.51801 2 16.25C2 23.982 8.26801 30.25 16 30.25Z" stroke="#2F2F2F" stroke-width="2.8" stroke-linecap="round" stroke-linejoin="round"/>
<path d="M16 21.85C19.0928 21.85 21.6 19.3428 21.6 16.25C21.6 13.1572 19.0928 10.65 16 10.65C12.9072 10.65 10.4 13.1572 10.4 16.25C10.4 19.3428 12.9072 21.85 16 21.85Z" stroke="#2F2F2F" stroke-width="2.8" stroke-linecap="round" stroke-linejoin="round"/>
<path d="M19.962 20.2119L25.898 26.1479" stroke="#2F2F2F" stroke-width="2.8" stroke-linecap="round" stroke-linejoin="round"/>
<path d="M6.10199 26.1479L12.038 20.2119" stroke="#2F2F2F" stroke-width="2.8" stroke-linecap="round" stroke-linejoin="round"/>
<path d="M19.962 12.2881L25.898 6.35205" stroke="#2F2F2F" stroke-width="2.8" stroke-linecap="round" stroke-linejoin="round"/>
<path d="M19.962 12.2881L24.904 7.34607" stroke="#2F2F2F" stroke-width="2.8" stroke-linecap="round" stroke-linejoin="round"/>
<path d="M6.10199 6.35205L12.038 12.2881" stroke="#2F2F2F" stroke-width="2.8" stroke-linecap="round" stroke-linejoin="round"/>
</svg>
