<svg width="241" height="189" viewBox="0 0 241 189" fill="none" xmlns="http://www.w3.org/2000/svg">
<circle cx="3.5" cy="3.5" r="3.5" fill="#F9BF29"/>
<circle cx="3.5" cy="29.5" r="3.5" fill="#F9BF29"/>
<circle cx="3.5" cy="55.5" r="3.5" fill="#F9BF29"/>
<circle cx="3.5" cy="81.5" r="3.5" fill="#F9BF29"/>
<circle cx="3.5" cy="107.5" r="3.5" fill="#F9BF29"/>
<circle cx="3.5" cy="133.5" r="3.5" fill="#F9BF29"/>
<circle cx="3.5" cy="159.5" r="3.5" fill="#F9BF29"/>
<circle cx="3.5" cy="185.5" r="3.5" fill="#F9BF29"/>
<circle cx="29.5" cy="3.5" r="3.5" fill="#F9BF29"/>
<circle cx="29.5" cy="29.5" r="3.5" fill="#F9BF29"/>
<circle cx="29.5" cy="55.5" r="3.5" fill="#F9BF29"/>
<circle cx="29.5" cy="81.5" r="3.5" fill="#F9BF29"/>
<circle cx="29.5" cy="107.5" r="3.5" fill="#F9BF29"/>
<circle cx="29.5" cy="133.5" r="3.5" fill="#F9BF29"/>
<circle cx="29.5" cy="159.5" r="3.5" fill="#F9BF29"/>
<circle cx="29.5" cy="185.5" r="3.5" fill="#F9BF29"/>
<circle cx="55.5" cy="3.5" r="3.5" fill="#F9BF29"/>
<circle cx="55.5" cy="29.5" r="3.5" fill="#F9BF29"/>
<circle cx="55.5" cy="55.5" r="3.5" fill="#F9BF29"/>
<circle cx="55.5" cy="81.5" r="3.5" fill="#F9BF29"/>
<circle cx="55.5" cy="107.5" r="3.5" fill="#F9BF29"/>
<circle cx="55.5" cy="133.5" r="3.5" fill="#F9BF29"/>
<circle cx="55.5" cy="159.5" r="3.5" fill="#F9BF29"/>
<circle cx="55.5" cy="185.5" r="3.5" fill="#F9BF29"/>
<circle cx="81.5" cy="3.5" r="3.5" fill="#F9BF29"/>
<circle cx="81.5" cy="29.5" r="3.5" fill="#F9BF29"/>
<circle cx="81.5" cy="55.5" r="3.5" fill="#F9BF29"/>
<circle cx="81.5" cy="81.5" r="3.5" fill="#F9BF29"/>
<circle cx="81.5" cy="107.5" r="3.5" fill="#F9BF29"/>
<circle cx="81.5" cy="133.5" r="3.5" fill="#F9BF29"/>
<circle cx="81.5" cy="159.5" r="3.5" fill="#F9BF29"/>
<circle cx="81.5" cy="185.5" r="3.5" fill="#F9BF29"/>
<circle cx="107.5" cy="3.5" r="3.5" fill="#F9BF29"/>
<circle cx="107.5" cy="29.5" r="3.5" fill="#F9BF29"/>
<circle cx="107.5" cy="55.5" r="3.5" fill="#F9BF29"/>
<circle cx="107.5" cy="81.5" r="3.5" fill="#F9BF29"/>
<circle cx="107.5" cy="107.5" r="3.5" fill="#F9BF29"/>
<circle cx="107.5" cy="133.5" r="3.5" fill="#F9BF29"/>
<circle cx="107.5" cy="159.5" r="3.5" fill="#F9BF29"/>
<circle cx="107.5" cy="185.5" r="3.5" fill="#F9BF29"/>
<circle cx="133.5" cy="3.5" r="3.5" fill="#F9BF29"/>
<circle cx="133.5" cy="29.5" r="3.5" fill="#F9BF29"/>
<circle cx="133.5" cy="55.5" r="3.5" fill="#F9BF29"/>
<circle cx="133.5" cy="81.5" r="3.5" fill="#F9BF29"/>
<circle cx="133.5" cy="107.5" r="3.5" fill="#F9BF29"/>
<circle cx="133.5" cy="133.5" r="3.5" fill="#F9BF29"/>
<circle cx="133.5" cy="159.5" r="3.5" fill="#F9BF29"/>
<circle cx="133.5" cy="185.5" r="3.5" fill="#F9BF29"/>
<circle cx="159.5" cy="3.5" r="3.5" fill="#F9BF29"/>
<circle cx="159.5" cy="29.5" r="3.5" fill="#F9BF29"/>
<circle cx="159.5" cy="55.5" r="3.5" fill="#F9BF29"/>
<circle cx="159.5" cy="81.5" r="3.5" fill="#F9BF29"/>
<circle cx="159.5" cy="107.5" r="3.5" fill="#F9BF29"/>
<circle cx="159.5" cy="133.5" r="3.5" fill="#F9BF29"/>
<circle cx="159.5" cy="159.5" r="3.5" fill="#F9BF29"/>
<circle cx="159.5" cy="185.5" r="3.5" fill="#F9BF29"/>
<circle cx="185.5" cy="3.5" r="3.5" fill="#F9BF29"/>
<circle cx="185.5" cy="29.5" r="3.5" fill="#F9BF29"/>
<circle cx="185.5" cy="55.5" r="3.5" fill="#F9BF29"/>
<circle cx="185.5" cy="81.5" r="3.5" fill="#F9BF29"/>
<circle cx="185.5" cy="107.5" r="3.5" fill="#F9BF29"/>
<circle cx="185.5" cy="133.5" r="3.5" fill="#F9BF29"/>
<circle cx="185.5" cy="159.5" r="3.5" fill="#F9BF29"/>
<circle cx="185.5" cy="185.5" r="3.5" fill="#F9BF29"/>
<circle cx="211.5" cy="3.5" r="3.5" fill="#F9BF29"/>
<circle cx="211.5" cy="29.5" r="3.5" fill="#F9BF29"/>
<circle cx="211.5" cy="55.5" r="3.5" fill="#F9BF29"/>
<circle cx="211.5" cy="81.5" r="3.5" fill="#F9BF29"/>
<circle cx="211.5" cy="107.5" r="3.5" fill="#F9BF29"/>
<circle cx="211.5" cy="133.5" r="3.5" fill="#F9BF29"/>
<circle cx="211.5" cy="159.5" r="3.5" fill="#F9BF29"/>
<circle cx="211.5" cy="185.5" r="3.5" fill="#F9BF29"/>
<circle cx="237.5" cy="3.5" r="3.5" fill="#F9BF29"/>
<circle cx="237.5" cy="29.5" r="3.5" fill="#F9BF29"/>
<circle cx="237.5" cy="55.5" r="3.5" fill="#F9BF29"/>
<circle cx="237.5" cy="81.5" r="3.5" fill="#F9BF29"/>
<circle cx="237.5" cy="107.5" r="3.5" fill="#F9BF29"/>
<circle cx="237.5" cy="133.5" r="3.5" fill="#F9BF29"/>
<circle cx="237.5" cy="159.5" r="3.5" fill="#F9BF29"/>
<circle cx="237.5" cy="185.5" r="3.5" fill="#F9BF29"/>
</svg>
